<?xml version="1.0" standalone="no"?>
<!DOCTYPE svg PUBLIC "-//W3C//DTD SVG 20010904//EN"
 "http://www.w3.org/TR/2001/REC-SVG-20010904/DTD/svg10.dtd">
<svg version="1.0" xmlns="http://www.w3.org/2000/svg"
 width="128.000000pt" height="128.000000pt" viewBox="0 0 128.000000 128.000000"
 preserveAspectRatio="xMidYMid meet">

<g transform="translate(0.000000,128.000000) scale(0.100000,-0.100000)"
fill="#000000" stroke="none">
<path d="M355 1255 l-25 -24 0 -341 c0 -187 -2 -340 -5 -340 -3 0 -29 18 -58
39 -72 54 -144 91 -179 91 -40 0 -78 -40 -78 -82 0 -26 15 -52 68 -118 37 -47
90 -116 117 -155 123 -173 275 -265 439 -265 100 0 228 63 281 140 51 74 54
95 55 383 l0 268 -25 24 c-32 33 -78 33 -110 0 -23 -23 -25 -23 -25 -4 0 31
-44 69 -80 69 -19 0 -40 -9 -55 -25 -23 -23 -25 -23 -25 -4 0 31 -44 69 -80
69 -19 0 -40 -9 -55 -25 l-25 -24 0 150 c0 146 -1 151 -25 174 -15 16 -36 25
-55 25 -19 0 -40 -9 -55 -25z m95 -15 c19 -19 20 -33 20 -285 0 -258 1 -265
20 -265 19 0 20 7 20 115 0 102 2 117 20 135 11 11 29 20 40 20 11 0 29 -9 40
-20 18 -18 20 -33 20 -135 0 -108 1 -115 20 -115 19 0 20 7 20 95 0 82 3 98
20 115 11 11 29 20 40 20 11 0 29 -9 40 -20 17 -17 20 -33 20 -115 0 -88 1
-95 20 -95 18 0 20 7 20 75 0 81 18 115 60 115 11 0 29 -9 40 -20 19 -19 20
-33 20 -278 0 -290 -5 -319 -66 -390 -21 -25 -62 -55 -102 -74 -61 -30 -74
-33 -157 -32 -69 0 -104 6 -148 23 -82 32 -172 104 -232 185 -27 37 -87 116
-132 174 -86 109 -98 139 -66 174 34 38 95 15 226 -83 l77 -58 0 359 c0 347 1
361 20 380 11 11 29 20 40 20 11 0 29 -9 40 -20z"/>
</g>
</svg>
